# Blender v2.79 (sub 0) OBJ File: 'CargoTrain_WagonEmpty.blend'
# www.blender.org
mtllib CargoTrain_WagonEmpty.mtl
o Wagon_Empty_Cube.002
v -4.282398 0.306357 0.473716
v -4.282398 0.869521 0.473716
v 4.363015 0.306357 0.473716
v 4.363015 0.869521 0.473716
v 0.040309 0.306357 0.473716
v 0.040308 0.869521 0.473716
v -3.273279 0.617489 0.601003
v -3.273279 0.873481 0.601003
v -0.828769 0.617489 0.601003
v -0.828769 0.873481 0.601003
v -3.273279 0.873481 0.918959
v -3.273279 0.617489 0.918959
v -0.828769 0.617489 0.918959
v -0.828769 0.873481 0.918959
v 1.483541 0.617489 0.601003
v 1.483541 0.873481 0.601003
v 3.928051 0.617489 0.601003
v 3.928051 0.873481 0.601003
v 1.483541 0.873481 0.918959
v 1.483541 0.617489 0.918959
v 3.928051 0.617489 0.918959
v 3.928051 0.873481 0.918959
v -0.487738 0.424834 0.448788
v -0.435967 0.424834 0.419921
v 1.164566 0.424834 0.448788
v 1.112795 0.424834 0.419921
v -0.487738 0.300338 0.482147
v -0.435967 0.289317 0.456233
v 1.164566 0.300338 0.482147
v 1.112795 0.289317 0.456233
v -0.487738 0.210430 0.572055
v -0.435967 0.190111 0.555439
v 1.164566 0.210430 0.572054
v 1.112795 0.190111 0.555438
v -0.487738 0.178571 0.690956
v -0.435967 0.153799 0.690956
v 1.164566 0.178571 0.690956
v 1.112795 0.153799 0.690956
v -0.487738 0.210430 0.809857
v -0.435967 0.190111 0.826473
v 1.164566 0.210430 0.809857
v 1.112795 0.190111 0.826473
v -0.487737 0.300338 0.899765
v -0.435967 0.289316 0.925679
v 1.164566 0.300338 0.899765
v 1.112795 0.289316 0.925679
v -0.487737 0.424834 0.933124
v -0.435967 0.424834 0.961991
v 1.164566 0.424834 0.933124
v 1.112795 0.424834 0.961991
v -0.487737 0.549330 0.899765
v -0.435967 0.560351 0.925679
v 1.164566 0.549330 0.899765
v 1.112795 0.560351 0.925679
v -0.487737 0.639238 0.809858
v -0.435967 0.659557 0.826474
v 1.164566 0.639238 0.809858
v 1.112795 0.659557 0.826474
v -0.487737 0.671097 0.690956
v -0.435967 0.695869 0.690956
v 1.164566 0.671097 0.690956
v 1.112795 0.695869 0.690956
v -0.487737 0.639238 0.572055
v -0.435967 0.659557 0.555439
v 1.164566 0.639238 0.572055
v 1.112795 0.659557 0.555439
v -0.487738 0.549330 0.482147
v -0.435967 0.560352 0.456233
v 1.164566 0.549330 0.482147
v 1.112795 0.560352 0.456233
v -4.059277 0.486648 0.774305
v -4.059277 0.230656 0.774305
v 4.313151 0.230656 0.774305
v 4.313150 0.486648 0.774305
v -4.282398 0.306357 -0.473716
v -4.282398 0.869521 -0.473716
v 4.363015 0.306357 -0.473716
v 4.363015 0.869521 -0.473716
v 0.040309 0.306357 -0.473716
v 0.040308 0.869521 -0.473716
v -4.282398 0.306357 0.000000
v -4.282398 0.869521 0.000000
v 4.363015 0.306357 0.000000
v 4.363015 0.869521 0.000000
v 0.040309 0.869521 0.000000
v 0.040309 0.306357 0.000000
v -3.273279 0.617489 -0.601003
v -3.273279 0.873481 -0.601003
v -0.828769 0.617489 -0.601003
v -0.828769 0.873481 -0.601003
v -3.273279 0.873481 -0.918959
v -3.273279 0.617489 -0.918959
v -0.828769 0.617489 -0.918959
v -0.828769 0.873481 -0.918959
v 1.483541 0.617489 -0.601003
v 1.483541 0.873481 -0.601003
v 3.928051 0.617489 -0.601003
v 3.928051 0.873481 -0.601003
v 1.483541 0.873481 -0.918959
v 1.483541 0.617489 -0.918959
v 3.928051 0.617489 -0.918959
v 3.928051 0.873481 -0.918959
v -0.487738 0.424834 -0.425902
v -0.435967 0.424834 -0.397035
v 1.164566 0.424834 -0.425902
v 1.112795 0.424834 -0.397035
v -0.487738 0.300338 -0.459261
v -0.435967 0.289317 -0.433347
v 1.164566 0.300338 -0.459261
v 1.112795 0.289317 -0.433347
v -0.487738 0.210430 -0.549168
v -0.435967 0.190111 -0.532553
v 1.164566 0.210430 -0.549168
v 1.112795 0.190111 -0.532552
v -0.487738 0.178571 -0.668070
v -0.435967 0.153799 -0.668070
v 1.164566 0.178571 -0.668070
v 1.112795 0.153799 -0.668070
v -0.487738 0.210430 -0.786972
v -0.435967 0.190111 -0.803587
v 1.164566 0.210430 -0.786971
v 1.112795 0.190111 -0.803587
v -0.487737 0.300338 -0.876879
v -0.435967 0.289316 -0.902793
v 1.164566 0.300338 -0.876879
v 1.112795 0.289316 -0.902793
v -0.487737 0.424834 -0.910238
v -0.435967 0.424834 -0.939105
v 1.164566 0.424834 -0.910238
v 1.112795 0.424834 -0.939105
v -0.487737 0.549330 -0.876879
v -0.435967 0.560351 -0.902793
v 1.164566 0.549330 -0.876879
v 1.112795 0.560351 -0.902793
v -0.487737 0.639238 -0.786972
v -0.435967 0.659557 -0.803588
v 1.164566 0.639238 -0.786972
v 1.112795 0.659557 -0.803588
v -0.487737 0.671097 -0.668070
v -0.435967 0.695869 -0.668070
v 1.164566 0.671097 -0.668070
v 1.112795 0.695869 -0.668070
v -0.487737 0.639238 -0.549169
v -0.435967 0.659557 -0.532553
v 1.164566 0.639238 -0.549169
v 1.112795 0.659557 -0.532553
v -0.487738 0.549330 -0.459261
v -0.435967 0.560352 -0.433347
v 1.164566 0.549330 -0.459261
v 1.112795 0.560352 -0.433347
v -4.059277 0.230656 0.000000
v -4.059277 0.486648 0.000000
v 4.313151 0.230656 0.000000
v 4.313150 0.486648 0.000000
v -4.059277 0.486648 -0.774305
v -4.059277 0.230656 -0.774305
v 4.313151 0.230656 -0.774305
v 4.313150 0.486648 -0.774305
v -3.947207 0.865833 0.991863
v -3.947207 0.971105 0.991863
v -3.947207 0.865833 -0.991863
v -3.947207 0.971105 -0.991863
v 4.452020 0.865833 0.991863
v 4.452020 0.971105 0.991863
v 4.452020 0.865833 -0.991863
v 4.452020 0.971105 -0.991863
v -3.947207 0.865833 -0.633622
v -3.947207 0.865833 0.633622
v -3.947207 0.971105 0.633622
v -3.947207 0.971105 -0.633622
v 4.452020 0.865833 0.633622
v 4.452020 0.865833 -0.633622
v 4.452020 0.971105 -0.633622
v 4.452020 0.971105 0.633622
v -4.267446 0.865833 -0.633622
v -4.267446 0.865833 0.633622
v -4.267446 0.971105 0.633622
v -4.267446 0.971105 -0.633622
v -4.334197 0.128047 0.000000
v -4.334197 0.190194 -0.633622
v -4.267446 0.190194 -0.633622
v -4.267446 0.278235 1.031447
v -4.267446 0.971105 1.031447
v -4.267446 0.865833 1.031447
v -4.267446 0.971105 -1.031447
v -4.267446 0.865833 -1.031447
v -4.334197 0.278235 1.031447
v -4.334197 0.190194 0.633622
v -4.334197 0.278235 -1.031447
v -4.267446 0.278235 -1.031447
v -3.947207 0.865833 0.000000
v -3.947207 0.971105 0.000000
v 4.452020 0.865833 0.000000
v 4.452020 0.971105 0.000000
v -4.267446 0.865833 0.000000
v -4.267446 0.971105 0.000000
v -4.267446 0.190194 0.633622
v -4.267446 0.128047 0.000000
v -4.334197 0.865833 0.000000
v -4.334197 0.865833 0.633622
v -4.334197 0.971105 0.000000
v -4.334197 0.971105 -0.633622
v -4.808573 0.865833 0.000000
v -4.704414 0.865833 0.633622
v -4.808573 0.971105 0.000000
v -4.704414 0.971105 -0.633622
v -4.704414 0.971105 0.633622
v -4.704414 0.865833 -0.633622
v -4.334197 0.971105 0.633622
v -4.334197 0.865833 -0.633622
v -4.334197 0.971105 1.031447
v -4.334197 0.865833 1.031447
v -4.334197 0.971105 -1.031447
v -4.334197 0.865833 -1.031447
v -4.492928 0.971105 1.031447
v -4.492928 0.865833 1.031447
v -4.492928 0.971105 -1.031447
v -4.492928 0.865833 -1.031447
v -4.267446 0.679054 0.000000
v -4.334197 0.679054 -0.633622
v -4.334197 0.679054 -1.031447
v -4.267446 0.679054 -0.633622
v -4.334197 0.679054 0.633622
v -4.334197 0.679054 1.031447
v -4.334197 0.679054 0.000000
v -4.267446 0.679054 -1.031447
v -4.267446 0.679054 1.031447
v -4.267446 0.679054 0.633622
v -4.402444 0.190194 -0.633622
v -4.402444 0.128047 0.000000
v -4.402444 0.278235 -1.031447
v -4.402444 0.190194 0.633622
v -4.402444 0.278235 1.031447
v -4.402444 0.679054 -1.031447
v -4.402444 0.679054 0.633622
v -4.402444 0.679054 -0.633622
v -4.402444 0.679054 1.031447
v -4.402444 0.679054 0.000000
v -0.115074 0.483257 0.314836
v -4.267446 0.541302 0.000000
v -4.267446 0.403550 0.000000
v -4.267446 0.265798 0.000000
v -4.334197 0.578849 -1.031447
v -4.334197 0.478645 -1.031447
v -4.334197 0.378440 -1.031447
v -4.267446 0.578849 -1.031447
v -4.267446 0.478645 -1.031447
v -4.267446 0.378440 -1.031447
v -4.267446 0.556839 0.633622
v -4.267446 0.434624 0.633622
v -4.267446 0.312409 0.633622
v -4.267446 0.312409 -0.633622
v -4.267446 0.434624 -0.633622
v -4.267446 0.556839 -0.633622
v -4.334197 0.378440 1.031447
v -4.334197 0.478645 1.031447
v -4.334197 0.578849 1.031447
v -4.267446 0.378440 1.031447
v -4.267446 0.478645 1.031447
v -4.267446 0.578849 1.031447
v -4.402444 0.578849 -1.031447
v -4.402444 0.478645 -1.031447
v -4.402444 0.378440 -1.031447
v -4.402444 0.556839 0.633622
v -4.470304 0.378440 -1.031447
v -4.470304 0.278235 1.031447
v -4.470304 0.190194 0.633622
v -4.470304 0.278235 -1.031447
v -4.402444 0.556839 -0.633622
v -4.402444 0.378440 1.031447
v -4.402444 0.478645 1.031447
v -4.402444 0.578849 1.031447
v -4.470304 0.128047 0.000000
v -4.470304 0.190194 -0.633622
v -4.402444 0.541302 0.000000
v -4.434574 0.190194 -0.633622
v -4.434574 0.128047 0.000000
v -4.434574 0.278235 -1.031447
v -4.434574 0.190194 0.633622
v -4.434574 0.278235 1.031447
v -4.434574 0.378440 -1.031447
v -4.434574 0.578849 -1.031447
v -4.434574 0.478645 -1.031447
v -4.434574 0.556839 0.633622
v -4.434574 0.434624 0.633622
v -4.434574 0.434624 -0.633622
v -4.434574 0.556839 -0.633622
v -4.434574 0.378440 1.031447
v -4.434574 0.478645 1.031447
v -4.434574 0.578849 1.031447
v -4.434574 0.403550 0.000000
v -4.434574 0.541302 0.000000
v -4.470304 0.312409 0.633622
v -4.470304 0.478645 -1.031447
v -4.470304 0.434624 0.633622
v -4.470304 0.312409 -0.633622
v -4.470304 0.434624 -0.633622
v -4.470304 0.378440 1.031447
v -4.470304 0.478645 1.031447
v -4.470304 0.265798 0.000000
v -4.470304 0.403550 0.000000
v -4.497130 0.190194 0.633622
v -4.497130 0.278235 1.031447
v -4.497130 0.278235 -1.031447
v -4.497130 0.190194 -0.633622
v -4.497130 0.128047 0.000000
v -4.497130 0.378440 -1.031447
v -4.497130 0.312409 0.633622
v -4.497130 0.312409 -0.633622
v -4.497130 0.378440 1.031447
v -4.497130 0.265798 0.000000
v -4.267446 1.023845 0.000000
v -4.267446 1.023845 -0.633622
v -4.334197 1.023845 0.000000
v -4.267446 1.023845 -1.031447
v -4.267446 1.023845 0.633622
v -4.267446 1.023845 1.031447
v -4.334197 1.023845 -0.633622
v -4.334197 1.023845 -1.031447
v -4.334197 1.023845 1.031447
v -4.334197 1.023845 0.633622
v -3.847105 0.958860 0.592335
v -3.847105 0.958860 -0.592335
v -3.847105 0.958860 0.964238
v -3.847105 0.958860 -0.964238
v -3.847105 0.958860 0.000000
v -3.913855 0.958860 0.000000
v -3.913855 0.958860 -0.592335
v -3.913855 0.958860 0.592335
v -3.913855 0.958860 0.964238
v -3.913855 0.958860 -0.964238
v -3.847105 1.018221 0.000000
v -3.847105 1.018221 -0.592335
v -3.913855 1.018221 0.000000
v -3.847105 1.018221 -0.964238
v -3.847105 1.018221 0.592335
v -3.847105 1.018221 0.964238
v -3.913855 1.018221 -0.592335
v -3.913855 1.018221 -0.964238
v -3.913855 1.018221 0.964238
v -3.913855 1.018221 0.592335
v -3.019397 0.958860 0.592335
v -3.019397 0.958860 -0.592335
v -3.019397 0.958860 0.964238
v -3.019397 0.958860 -0.964238
v -3.019397 0.958860 0.000000
v -3.086148 0.958860 0.000000
v -3.086148 0.958860 -0.592335
v -3.086148 0.958860 0.592335
v -3.086148 0.958860 0.964238
v -3.086148 0.958860 -0.964238
v -3.019397 1.018221 0.000000
v -3.019397 1.018221 -0.592335
v -3.086148 1.018221 0.000000
v -3.019397 1.018221 -0.964238
v -3.019397 1.018221 0.592335
v -3.019397 1.018221 0.964238
v -3.086148 1.018221 -0.592335
v -3.086148 1.018221 -0.964238
v -3.086148 1.018221 0.964238
v -3.086148 1.018221 0.592335
v -2.191689 0.958860 0.592335
v -2.191689 0.958860 -0.592335
v -2.191689 0.958860 0.964238
v -2.191689 0.958860 -0.964238
v -2.191689 0.958860 0.000000
v -2.258440 0.958860 0.000000
v -2.258440 0.958860 -0.592335
v -2.258440 0.958860 0.592335
v -2.258440 0.958860 0.964238
v -2.258440 0.958860 -0.964238
v -2.191689 1.018221 0.000000
v -2.191689 1.018221 -0.592335
v -2.258440 1.018221 0.000000
v -2.191689 1.018221 -0.964238
v -2.191689 1.018221 0.592335
v -2.191689 1.018221 0.964238
v -2.258440 1.018221 -0.592335
v -2.258440 1.018221 -0.964238
v -2.258440 1.018221 0.964238
v -2.258440 1.018221 0.592335
v -1.363982 0.958860 0.592335
v -1.363982 0.958860 -0.592335
v -1.363982 0.958860 0.964238
v -1.363982 0.958860 -0.964238
v -1.363982 0.958860 0.000000
v -1.430733 0.958860 0.000000
v -1.430733 0.958860 -0.592335
v -1.430733 0.958860 0.592335
v -1.430733 0.958860 0.964238
v -1.430733 0.958860 -0.964238
v -1.363982 1.018221 0.000000
v -1.363982 1.018221 -0.592335
v -1.430733 1.018221 0.000000
v -1.363982 1.018221 -0.964238
v -1.363982 1.018221 0.592335
v -1.363982 1.018221 0.964238
v -1.430733 1.018221 -0.592335
v -1.430733 1.018221 -0.964238
v -1.430733 1.018221 0.964238
v -1.430733 1.018221 0.592335
v -0.536274 0.958860 0.592335
v -0.536274 0.958860 -0.592335
v -0.536274 0.958860 0.964238
v -0.536274 0.958860 -0.964238
v -0.536274 0.958860 0.000000
v -0.603025 0.958860 0.000000
v -0.603025 0.958860 -0.592335
v -0.603025 0.958860 0.592335
v -0.603025 0.958860 0.964238
v -0.603025 0.958860 -0.964238
v -0.536274 1.018221 0.000000
v -0.536274 1.018221 -0.592335
v -0.603025 1.018221 0.000000
v -0.536274 1.018221 -0.964238
v -0.536274 1.018221 0.592335
v -0.536274 1.018221 0.964238
v -0.603025 1.018221 -0.592335
v -0.603025 1.018221 -0.964238
v -0.603025 1.018221 0.964238
v -0.603025 1.018221 0.592335
v 0.291433 0.958860 0.592335
v 0.291433 0.958860 -0.592335
v 0.291433 0.958860 0.964238
v 0.291433 0.958860 -0.964238
v 0.291433 0.958860 0.000000
v 0.224683 0.958860 0.000000
v 0.224683 0.958860 -0.592335
v 0.224683 0.958860 0.592335
v 0.224683 0.958860 0.964238
v 0.224683 0.958860 -0.964238
v 0.291433 1.018221 0.000000
v 0.291433 1.018221 -0.592335
v 0.224683 1.018221 0.000000
v 0.291433 1.018221 -0.964238
v 0.291433 1.018221 0.592335
v 0.291433 1.018221 0.964238
v 0.224683 1.018221 -0.592335
v 0.224683 1.018221 -0.964238
v 0.224683 1.018221 0.964238
v 0.224683 1.018221 0.592335
v 1.119141 0.958860 0.592335
v 1.119141 0.958860 -0.592335
v 1.119141 0.958860 0.964238
v 1.119141 0.958860 -0.964238
v 1.119141 0.958860 0.000000
v 1.052391 0.958860 0.000000
v 1.052391 0.958860 -0.592335
v 1.052391 0.958860 0.592335
v 1.052391 0.958860 0.964238
v 1.052391 0.958860 -0.964238
v 1.119141 1.018221 0.000000
v 1.119141 1.018221 -0.592335
v 1.052391 1.018221 0.000000
v 1.119141 1.018221 -0.964238
v 1.119141 1.018221 0.592335
v 1.119141 1.018221 0.964238
v 1.052391 1.018221 -0.592335
v 1.052391 1.018221 -0.964238
v 1.052391 1.018221 0.964238
v 1.052391 1.018221 0.592335
v 1.946849 0.958860 0.592335
v 1.946849 0.958860 -0.592335
v 1.946849 0.958860 0.964238
v 1.946849 0.958860 -0.964238
v 1.946849 0.958860 0.000000
v 1.880098 0.958860 0.000000
v 1.880098 0.958860 -0.592335
v 1.880098 0.958860 0.592335
v 1.880098 0.958860 0.964238
v 1.880098 0.958860 -0.964238
v 1.946849 1.018221 0.000000
v 1.946849 1.018221 -0.592335
v 1.880098 1.018221 0.000000
v 1.946849 1.018221 -0.964238
v 1.946849 1.018221 0.592335
v 1.946849 1.018221 0.964238
v 1.880098 1.018221 -0.592335
v 1.880098 1.018221 -0.964238
v 1.880098 1.018221 0.964238
v 1.880098 1.018221 0.592335
v 2.774556 0.958860 0.592335
v 2.774556 0.958860 -0.592335
v 2.774556 0.958860 0.964238
v 2.774556 0.958860 -0.964238
v 2.774556 0.958860 0.000000
v 2.707806 0.958860 0.000000
v 2.707806 0.958860 -0.592335
v 2.707806 0.958860 0.592335
v 2.707806 0.958860 0.964238
v 2.707806 0.958860 -0.964238
v 2.774556 1.018221 0.000000
v 2.774556 1.018221 -0.592335
v 2.707806 1.018221 0.000000
v 2.774556 1.018221 -0.964238
v 2.774556 1.018221 0.592335
v 2.774556 1.018221 0.964238
v 2.707806 1.018221 -0.592335
v 2.707806 1.018221 -0.964238
v 2.707806 1.018221 0.964238
v 2.707806 1.018221 0.592335
v 3.602264 0.958860 0.592335
v 3.602264 0.958860 -0.592335
v 3.602264 0.958860 0.964238
v 3.602264 0.958860 -0.964238
v 3.602264 0.958860 0.000000
v 3.535514 0.958860 0.000000
v 3.535514 0.958860 -0.592335
v 3.535514 0.958860 0.592335
v 3.535514 0.958860 0.964238
v 3.535514 0.958860 -0.964238
v 3.602264 1.018221 0.000000
v 3.602264 1.018221 -0.592335
v 3.535514 1.018221 0.000000
v 3.602264 1.018221 -0.964238
v 3.602264 1.018221 0.592335
v 3.602264 1.018221 0.964238
v 3.535514 1.018221 -0.592335
v 3.535514 1.018221 -0.964238
v 3.535514 1.018221 0.964238
v 3.535514 1.018221 0.592335
v 4.429971 0.958860 0.592335
v 4.429971 0.958860 -0.592335
v 4.429971 0.958860 0.964238
v 4.429971 0.958860 -0.964238
v 4.429971 0.958860 0.000000
v 4.363221 0.958860 0.000000
v 4.363221 0.958860 -0.592335
v 4.363221 0.958860 0.592335
v 4.363221 0.958860 0.964238
v 4.363221 0.958860 -0.964238
v 4.429971 1.018221 0.000000
v 4.429971 1.018221 -0.592335
v 4.363221 1.018221 0.000000
v 4.429971 1.018221 -0.964238
v 4.429971 1.018221 0.592335
v 4.429971 1.018221 0.964238
v 4.363221 1.018221 -0.592335
v 4.363221 1.018221 -0.964238
v 4.363221 1.018221 0.964238
v 4.363221 1.018221 0.592335
vn -1.0000 0.0000 0.0000
vn 0.0000 0.0000 1.0000
vn 0.0000 -1.0000 0.0000
vn 0.0000 1.0000 0.0000
vn 1.0000 0.0000 0.0000
vn 0.0000 0.0000 -1.0000
vn 0.0000 0.2588 -0.9659
vn 0.0000 -0.9659 -0.2588
vn 0.0000 -0.9659 0.2588
vn 0.0000 -0.7071 0.7071
vn 0.0000 -0.2588 0.9659
vn 0.0000 0.2588 0.9659
vn 0.0000 0.7071 0.7071
vn 0.0000 0.9659 0.2588
vn 0.0000 0.9659 -0.2588
vn -0.0000 0.7071 -0.7071
vn -0.0000 -0.7071 -0.7071
vn 0.0000 -0.2588 -0.9659
vn -0.4742 -0.2279 -0.8504
vn 0.4742 -0.2279 -0.8504
vn -0.4504 -0.6313 -0.6313
vn 0.4504 -0.6313 -0.6313
vn -0.4195 -0.8768 -0.2349
vn 0.4195 -0.8768 -0.2349
vn -0.4195 -0.8768 0.2349
vn 0.4195 -0.8768 0.2349
vn -0.4504 -0.6313 0.6313
vn 0.4504 -0.6313 0.6313
vn -0.4742 -0.2279 0.8504
vn 0.4742 -0.2279 0.8504
vn -0.4742 0.2279 0.8504
vn 0.4742 0.2279 0.8504
vn -0.4504 0.6313 0.6313
vn 0.4504 0.6313 0.6313
vn -0.4195 0.8768 0.2349
vn 0.4195 0.8768 0.2349
vn -0.4195 0.8768 -0.2349
vn 0.4195 0.8768 -0.2349
vn -0.4504 0.6313 -0.6313
vn 0.4504 0.6313 -0.6313
vn -0.4742 0.2279 -0.8504
vn 0.4742 0.2279 -0.8504
vn 0.0000 -0.9952 -0.0976
vn 0.0000 -0.9952 0.0976
vn 0.0000 -0.9764 -0.2161
vn 0.0000 -0.9764 0.2161
vn -0.9868 0.0000 -0.1622
vn -0.8830 0.0000 0.4694
vn -0.8830 0.0000 -0.4694
vn -0.9868 0.0000 0.1622
vn 0.0000 0.9985 0.0552
vn 0.0000 0.9997 0.0245
vn 0.0000 0.9997 -0.0245
vn 0.0000 0.9988 -0.0490
vn 0.0000 0.9939 0.1100
vn 0.0000 0.9939 -0.1100
vn 0.0000 0.9988 0.0490
vn 0.0000 0.9985 -0.0552
vn 0.0000 0.9865 -0.1637
vn 0.0000 0.9973 -0.0734
vn 0.0000 0.9865 0.1637
vn 0.0000 0.9973 0.0734
usemtl Base
s off
f 81//1 1//1 2//1 82//1
f 5//2 3//2 4//2 6//2
f 1//2 5//2 6//2 2//2
f 1//3 81//3 86//3 5//3
f 4//4 84//4 85//4 6//4
f 6//4 85//4 82//4 2//4
f 5//3 86//3 83//3 3//3
f 3//5 83//5 84//5 4//5
f 7//6 8//6 10//6 9//6
f 12//2 13//2 14//2 11//2
f 8//4 11//4 14//4 10//4
f 7//1 12//1 11//1 8//1
f 10//5 14//5 13//5 9//5
f 9//3 13//3 12//3 7//3
f 15//6 16//6 18//6 17//6
f 20//2 21//2 22//2 19//2
f 16//4 19//4 22//4 18//4
f 15//1 20//1 19//1 16//1
f 18//5 22//5 21//5 17//5
f 17//3 21//3 20//3 15//3
f 68//7 70//7 26//7 24//7
f 32//8 34//8 38//8 36//8
f 36//9 38//9 42//9 40//9
f 40//10 42//10 46//10 44//10
f 44//11 46//11 50//11 48//11
f 48//12 50//12 54//12 52//12
f 52//13 54//13 58//13 56//13
f 56//14 58//14 62//14 60//14
f 60//15 62//15 66//15 64//15
f 64//16 66//16 70//16 68//16
f 28//17 30//17 34//17 32//17
f 29//5 25//5 69//5 65//5 61//5 57//5 53//5 49//5 45//5 41//5 37//5 33//5
f 24//18 26//18 30//18 28//18
f 23//19 24//19 28//19 27//19
f 29//20 30//20 26//20 25//20
f 27//21 28//21 32//21 31//21
f 33//22 34//22 30//22 29//22
f 31//23 32//23 36//23 35//23
f 37//24 38//24 34//24 33//24
f 35//25 36//25 40//25 39//25
f 41//26 42//26 38//26 37//26
f 39//27 40//27 44//27 43//27
f 45//28 46//28 42//28 41//28
f 43//29 44//29 48//29 47//29
f 49//30 50//30 46//30 45//30
f 47//31 48//31 52//31 51//31
f 53//32 54//32 50//32 49//32
f 51//33 52//33 56//33 55//33
f 57//34 58//34 54//34 53//34
f 55//35 56//35 60//35 59//35
f 61//36 62//36 58//36 57//36
f 59//37 60//37 64//37 63//37
f 65//38 66//38 62//38 61//38
f 63//39 64//39 68//39 67//39
f 69//40 70//40 66//40 65//40
f 67//41 68//41 24//41 23//41
f 25//42 26//42 70//42 69//42
f 23//1 27//1 31//1 35//1 39//1 43//1 47//1 51//1 55//1 59//1 63//1 67//1
f 72//2 73//2 74//2 71//2
f 152//4 71//4 74//4 154//4
f 151//1 72//1 71//1 152//1
f 154//5 74//5 73//5 153//5
f 153//3 73//3 72//3 151//3
f 81//1 82//1 76//1 75//1
f 79//6 80//6 78//6 77//6
f 75//6 76//6 80//6 79//6
f 75//3 79//3 86//3 81//3
f 78//4 80//4 85//4 84//4
f 80//4 76//4 82//4 85//4
f 79//3 77//3 83//3 86//3
f 77//5 78//5 84//5 83//5
f 87//2 89//2 90//2 88//2
f 92//6 91//6 94//6 93//6
f 88//4 90//4 94//4 91//4
f 87//1 88//1 91//1 92//1
f 90//5 89//5 93//5 94//5
f 89//3 87//3 92//3 93//3
f 95//2 97//2 98//2 96//2
f 100//6 99//6 102//6 101//6
f 96//4 98//4 102//4 99//4
f 95//1 96//1 99//1 100//1
f 98//5 97//5 101//5 102//5
f 97//3 95//3 100//3 101//3
f 148//12 104//12 106//12 150//12
f 112//9 116//9 118//9 114//9
f 116//8 120//8 122//8 118//8
f 120//17 124//17 126//17 122//17
f 124//18 128//18 130//18 126//18
f 128//7 132//7 134//7 130//7
f 132//16 136//16 138//16 134//16
f 136//15 140//15 142//15 138//15
f 140//14 144//14 146//14 142//14
f 144//13 148//13 150//13 146//13
f 108//10 112//10 114//10 110//10
f 109//5 113//5 117//5 121//5 125//5 129//5 133//5 137//5 141//5 145//5 149//5 105//5
f 104//11 108//11 110//11 106//11
f 103//29 107//29 108//29 104//29
f 109//30 105//30 106//30 110//30
f 107//27 111//27 112//27 108//27
f 113//28 109//28 110//28 114//28
f 111//25 115//25 116//25 112//25
f 117//26 113//26 114//26 118//26
f 115//23 119//23 120//23 116//23
f 121//24 117//24 118//24 122//24
f 119//21 123//21 124//21 120//21
f 125//22 121//22 122//22 126//22
f 123//19 127//19 128//19 124//19
f 129//20 125//20 126//20 130//20
f 127//41 131//41 132//41 128//41
f 133//42 129//42 130//42 134//42
f 131//39 135//39 136//39 132//39
f 137//40 133//40 134//40 138//40
f 135//37 139//37 140//37 136//37
f 141//38 137//38 138//38 142//38
f 139//35 143//35 144//35 140//35
f 145//36 141//36 142//36 146//36
f 143//33 147//33 148//33 144//33
f 149//34 145//34 146//34 150//34
f 147//31 103//31 104//31 148//31
f 105//32 149//32 150//32 106//32
f 103//1 147//1 143//1 139//1 135//1 131//1 127//1 123//1 119//1 115//1 111//1 107//1
f 156//6 155//6 158//6 157//6
f 152//4 154//4 158//4 155//4
f 151//1 152//1 155//1 156//1
f 154//5 153//5 157//5 158//5
f 153//3 151//3 156//3 157//3
f 167//1 170//1 162//1 161//1
f 161//6 162//6 166//6 165//6
f 171//5 174//5 164//5 163//5
f 163//2 164//2 160//2 159//2
f 168//3 171//3 163//3 159//3
f 174//4 169//4 160//4 164//4
f 166//4 162//4 170//4 173//4
f 194//4 192//4 169//4 174//4
f 161//3 165//3 172//3 167//3
f 191//3 193//3 171//3 168//3
f 165//5 166//5 173//5 172//5
f 193//5 194//5 174//5 171//5
f 159//1 160//1 169//1 168//1
f 170//6 167//6 175//6 178//6
f 181//43 198//43 179//43 180//43
f 192//4 170//4 178//4 196//4
f 168//2 169//2 177//2 176//2
f 191//3 168//3 176//3 195//3
f 198//44 197//44 188//44 179//44
f 190//45 181//45 180//45 189//45
f 197//46 182//46 187//46 188//46
f 209//1 211//1 320//1 321//1
f 220//4 221//4 234//4 236//4
f 225//4 220//4 236//4 238//4
f 185//6 186//6 214//6 213//6
f 176//5 177//5 183//5 184//5
f 252//5 242//5 198//5 181//5
f 178//5 185//5 315//5 313//5
f 178//5 175//5 186//5 185//5
f 184//2 183//2 211//2 212//2
f 183//5 177//5 316//5 317//5
f 180//43 179//43 230//43 229//43
f 202//1 201//1 314//1 318//1
f 167//3 191//3 195//3 175//3
f 169//4 192//4 196//4 177//4
f 172//5 173//5 194//5 193//5
f 167//3 172//3 193//3 191//3
f 173//4 170//4 192//4 194//4
f 206//4 202//4 213//4 217//4
f 203//47 205//47 206//47 208//47
f 199//3 200//3 204//3 203//3
f 207//48 204//48 216//48 215//48
f 201//4 202//4 206//4 205//4
f 212//2 211//2 215//2 216//2
f 213//6 214//6 218//6 217//6
f 204//3 200//3 212//3 216//3
f 208//49 206//49 217//49 218//49
f 210//3 208//3 218//3 214//3
f 209//4 207//4 215//4 211//4
f 209//4 201//4 205//4 207//4
f 210//3 199//3 203//3 208//3
f 204//50 207//50 205//50 203//50
f 245//6 248//6 190//6 189//6
f 258//2 255//2 187//2 182//2
f 242//5 251//5 197//5 198//5
f 248//5 252//5 181//5 190//5
f 257//2 224//2 237//2 272//2
f 251//5 258//5 182//5 197//5
f 176//5 184//5 227//5 228//5
f 200//1 199//1 225//1 223//1
f 186//5 175//5 222//5 226//5
f 195//5 176//5 228//5 219//5
f 184//2 212//2 224//2 227//2
f 214//6 186//6 226//6 221//6
f 210//1 214//1 221//1 220//1
f 175//5 195//5 219//5 222//5
f 212//1 200//1 223//1 224//1
f 199//1 210//1 220//1 225//1
f 233//2 270//2 288//2 280//2
f 261//6 262//6 283//6 282//6
f 263//6 231//6 278//6 281//6
f 230//44 232//44 279//44 277//44
f 189//45 180//45 229//45 231//45
f 245//6 189//6 231//6 263//6
f 188//46 187//46 233//46 232//46
f 223//4 225//4 238//4 235//4
f 224//4 223//4 235//4 237//4
f 179//44 188//44 232//44 230//44
f 221//6 243//6 261//6 234//6
f 243//6 244//6 262//6 261//6
f 244//6 245//6 263//6 262//6
f 235//1 238//1 275//1 264//1
f 269//51 261//51 282//51 287//51
f 232//46 233//46 280//46 279//46
f 236//1 234//1 261//1 269//1
f 275//52 269//52 287//52 292//52
f 231//45 229//45 276//45 278//45
f 237//1 235//1 264//1 272//1
f 271//2 272//2 290//2 289//2
f 229//43 230//43 277//43 276//43
f 238//1 236//1 269//1 275//1
f 264//53 275//53 292//53 284//53
f 270//2 271//2 289//2 288//2
f 228//5 227//5 260//5 249//5
f 249//5 260//5 259//5 250//5
f 250//5 259//5 258//5 251//5
f 187//2 255//2 270//2 233//2
f 255//2 256//2 271//2 270//2
f 256//2 257//2 272//2 271//2
f 226//5 222//5 254//5 246//5
f 246//5 254//5 253//5 247//5
f 247//5 253//5 252//5 248//5
f 219//5 228//5 249//5 240//5
f 240//5 249//5 250//5 241//5
f 241//5 250//5 251//5 242//5
f 227//2 224//2 257//2 260//2
f 260//2 257//2 256//2 259//2
f 259//2 256//2 255//2 258//2
f 221//6 226//6 246//6 243//6
f 243//6 246//6 247//6 244//6
f 244//6 247//6 248//6 245//6
f 222//5 219//5 240//5 254//5
f 254//5 240//5 241//5 253//5
f 253//5 241//5 242//5 252//5
f 276//43 277//43 273//43 274//43
f 285//54 291//54 301//54 295//54
f 277//44 279//44 267//44 273//44
f 280//2 288//2 298//2 266//2
f 284//1 292//1 291//1 285//1
f 286//55 283//55 294//55 297//55
f 287//1 282//1 283//1 286//1
f 289//56 285//56 295//56 299//56
f 290//1 284//1 285//1 289//1
f 279//46 280//46 266//46 267//46
f 292//1 287//1 286//1 291//1
f 291//57 286//57 297//57 301//57
f 272//58 264//58 284//58 290//58
f 262//6 263//6 281//6 283//6
f 266//2 298//2 310//2 303//2
f 273//44 267//44 302//44 306//44
f 298//59 293//59 308//59 310//59
f 293//60 300//60 311//60 308//60
f 295//1 301//1 300//1 293//1
f 297//1 294//1 265//1 296//1
f 299//1 295//1 293//1 298//1
f 301//1 297//1 296//1 300//1
f 283//6 281//6 265//6 294//6
f 288//2 289//2 299//2 298//2
f 281//6 278//6 268//6 265//6
f 278//45 276//45 274//45 268//45
f 311//1 309//1 305//1 306//1
f 310//1 308//1 302//1 303//1
f 309//1 307//1 304//1 305//1
f 308//1 311//1 306//1 302//1
f 268//45 274//45 305//45 304//45
f 296//61 265//61 307//61 309//61
f 300//62 296//62 309//62 311//62
f 265//6 268//6 304//6 307//6
f 267//46 266//46 303//46 302//46
f 274//43 273//43 306//43 305//43
f 312//4 313//4 318//4 314//4
f 316//4 312//4 314//4 321//4
f 313//4 315//4 319//4 318//4
f 317//4 316//4 321//4 320//4
f 177//5 196//5 312//5 316//5
f 213//1 202//1 318//1 319//1
f 201//1 209//1 321//1 314//1
f 211//2 183//2 317//2 320//2
f 185//6 213//6 319//6 315//6
f 196//5 178//5 313//5 312//5
f 326//3 327//3 328//3 323//3
f 322//3 329//3 327//3 326//3
f 323//3 328//3 331//3 325//3
f 324//3 330//3 329//3 322//3
f 332//4 333//4 338//4 334//4
f 336//4 332//4 334//4 341//4
f 333//4 335//4 339//4 338//4
f 337//4 336//4 341//4 340//4
f 323//5 325//5 335//5 333//5
f 328//1 327//1 334//1 338//1
f 325//6 331//6 339//6 335//6
f 324//5 322//5 336//5 337//5
f 331//1 328//1 338//1 339//1
f 326//5 323//5 333//5 332//5
f 330//2 324//2 337//2 340//2
f 329//1 330//1 340//1 341//1
f 322//5 326//5 332//5 336//5
f 327//1 329//1 341//1 334//1
f 346//3 347//3 348//3 343//3
f 342//3 349//3 347//3 346//3
f 343//3 348//3 351//3 345//3
f 344//3 350//3 349//3 342//3
f 352//4 353//4 358//4 354//4
f 356//4 352//4 354//4 361//4
f 353//4 355//4 359//4 358//4
f 357//4 356//4 361//4 360//4
f 343//5 345//5 355//5 353//5
f 348//1 347//1 354//1 358//1
f 345//6 351//6 359//6 355//6
f 344//5 342//5 356//5 357//5
f 351//1 348//1 358//1 359//1
f 346//5 343//5 353//5 352//5
f 350//2 344//2 357//2 360//2
f 349//1 350//1 360//1 361//1
f 342//5 346//5 352//5 356//5
f 347//1 349//1 361//1 354//1
f 366//3 367//3 368//3 363//3
f 362//3 369//3 367//3 366//3
f 363//3 368//3 371//3 365//3
f 364//3 370//3 369//3 362//3
f 372//4 373//4 378//4 374//4
f 376//4 372//4 374//4 381//4
f 373//4 375//4 379//4 378//4
f 377//4 376//4 381//4 380//4
f 363//5 365//5 375//5 373//5
f 368//1 367//1 374//1 378//1
f 365//6 371//6 379//6 375//6
f 364//5 362//5 376//5 377//5
f 371//1 368//1 378//1 379//1
f 366//5 363//5 373//5 372//5
f 370//2 364//2 377//2 380//2
f 369//1 370//1 380//1 381//1
f 362//5 366//5 372//5 376//5
f 367//1 369//1 381//1 374//1
f 386//3 387//3 388//3 383//3
f 382//3 389//3 387//3 386//3
f 383//3 388//3 391//3 385//3
f 384//3 390//3 389//3 382//3
f 392//4 393//4 398//4 394//4
f 396//4 392//4 394//4 401//4
f 393//4 395//4 399//4 398//4
f 397//4 396//4 401//4 400//4
f 383//5 385//5 395//5 393//5
f 388//1 387//1 394//1 398//1
f 385//6 391//6 399//6 395//6
f 384//5 382//5 396//5 397//5
f 391//1 388//1 398//1 399//1
f 386//5 383//5 393//5 392//5
f 390//2 384//2 397//2 400//2
f 389//1 390//1 400//1 401//1
f 382//5 386//5 392//5 396//5
f 387//1 389//1 401//1 394//1
f 406//3 407//3 408//3 403//3
f 402//3 409//3 407//3 406//3
f 403//3 408//3 411//3 405//3
f 404//3 410//3 409//3 402//3
f 412//4 413//4 418//4 414//4
f 416//4 412//4 414//4 421//4
f 413//4 415//4 419//4 418//4
f 417//4 416//4 421//4 420//4
f 403//5 405//5 415//5 413//5
f 408//1 407//1 414//1 418//1
f 405//6 411//6 419//6 415//6
f 404//5 402//5 416//5 417//5
f 411//1 408//1 418//1 419//1
f 406//5 403//5 413//5 412//5
f 410//2 404//2 417//2 420//2
f 409//1 410//1 420//1 421//1
f 402//5 406//5 412//5 416//5
f 407//1 409//1 421//1 414//1
f 426//3 427//3 428//3 423//3
f 422//3 429//3 427//3 426//3
f 423//3 428//3 431//3 425//3
f 424//3 430//3 429//3 422//3
f 432//4 433//4 438//4 434//4
f 436//4 432//4 434//4 441//4
f 433//4 435//4 439//4 438//4
f 437//4 436//4 441//4 440//4
f 423//5 425//5 435//5 433//5
f 428//1 427//1 434//1 438//1
f 425//6 431//6 439//6 435//6
f 424//5 422//5 436//5 437//5
f 431//1 428//1 438//1 439//1
f 426//5 423//5 433//5 432//5
f 430//2 424//2 437//2 440//2
f 429//1 430//1 440//1 441//1
f 422//5 426//5 432//5 436//5
f 427//1 429//1 441//1 434//1
f 446//3 447//3 448//3 443//3
f 442//3 449//3 447//3 446//3
f 443//3 448//3 451//3 445//3
f 444//3 450//3 449//3 442//3
f 452//4 453//4 458//4 454//4
f 456//4 452//4 454//4 461//4
f 453//4 455//4 459//4 458//4
f 457//4 456//4 461//4 460//4
f 443//5 445//5 455//5 453//5
f 448//1 447//1 454//1 458//1
f 445//6 451//6 459//6 455//6
f 444//5 442//5 456//5 457//5
f 451//1 448//1 458//1 459//1
f 446//5 443//5 453//5 452//5
f 450//2 444//2 457//2 460//2
f 449//1 450//1 460//1 461//1
f 442//5 446//5 452//5 456//5
f 447//1 449//1 461//1 454//1
f 466//3 467//3 468//3 463//3
f 462//3 469//3 467//3 466//3
f 463//3 468//3 471//3 465//3
f 464//3 470//3 469//3 462//3
f 472//4 473//4 478//4 474//4
f 476//4 472//4 474//4 481//4
f 473//4 475//4 479//4 478//4
f 477//4 476//4 481//4 480//4
f 463//5 465//5 475//5 473//5
f 468//1 467//1 474//1 478//1
f 465//6 471//6 479//6 475//6
f 464//5 462//5 476//5 477//5
f 471//1 468//1 478//1 479//1
f 466//5 463//5 473//5 472//5
f 470//2 464//2 477//2 480//2
f 469//1 470//1 480//1 481//1
f 462//5 466//5 472//5 476//5
f 467//1 469//1 481//1 474//1
f 486//3 487//3 488//3 483//3
f 482//3 489//3 487//3 486//3
f 483//3 488//3 491//3 485//3
f 484//3 490//3 489//3 482//3
f 492//4 493//4 498//4 494//4
f 496//4 492//4 494//4 501//4
f 493//4 495//4 499//4 498//4
f 497//4 496//4 501//4 500//4
f 483//5 485//5 495//5 493//5
f 488//1 487//1 494//1 498//1
f 485//6 491//6 499//6 495//6
f 484//5 482//5 496//5 497//5
f 491//1 488//1 498//1 499//1
f 486//5 483//5 493//5 492//5
f 490//2 484//2 497//2 500//2
f 489//1 490//1 500//1 501//1
f 482//5 486//5 492//5 496//5
f 487//1 489//1 501//1 494//1
f 506//3 507//3 508//3 503//3
f 502//3 509//3 507//3 506//3
f 503//3 508//3 511//3 505//3
f 504//3 510//3 509//3 502//3
f 512//4 513//4 518//4 514//4
f 516//4 512//4 514//4 521//4
f 513//4 515//4 519//4 518//4
f 517//4 516//4 521//4 520//4
f 503//5 505//5 515//5 513//5
f 508//1 507//1 514//1 518//1
f 505//6 511//6 519//6 515//6
f 504//5 502//5 516//5 517//5
f 511//1 508//1 518//1 519//1
f 506//5 503//5 513//5 512//5
f 510//2 504//2 517//2 520//2
f 509//1 510//1 520//1 521//1
f 502//5 506//5 512//5 516//5
f 507//1 509//1 521//1 514//1
f 526//3 527//3 528//3 523//3
f 522//3 529//3 527//3 526//3
f 523//3 528//3 531//3 525//3
f 524//3 530//3 529//3 522//3
f 532//4 533//4 538//4 534//4
f 536//4 532//4 534//4 541//4
f 533//4 535//4 539//4 538//4
f 537//4 536//4 541//4 540//4
f 523//5 525//5 535//5 533//5
f 528//1 527//1 534//1 538//1
f 525//6 531//6 539//6 535//6
f 524//5 522//5 536//5 537//5
f 531//1 528//1 538//1 539//1
f 526//5 523//5 533//5 532//5
f 530//2 524//2 537//2 540//2
f 529//1 530//1 540//1 541//1
f 522//5 526//5 532//5 536//5
f 527//1 529//1 541//1 534//1
f 546//3 547//3 548//3 543//3
f 542//3 549//3 547//3 546//3
f 543//3 548//3 551//3 545//3
f 544//3 550//3 549//3 542//3
f 552//4 553//4 558//4 554//4
f 556//4 552//4 554//4 561//4
f 553//4 555//4 559//4 558//4
f 557//4 556//4 561//4 560//4
f 543//5 545//5 555//5 553//5
f 548//1 547//1 554//1 558//1
f 545//6 551//6 559//6 555//6
f 544//5 542//5 556//5 557//5
f 551//1 548//1 558//1 559//1
f 546//5 543//5 553//5 552//5
f 550//2 544//2 557//2 560//2
f 549//1 550//1 560//1 561//1
f 542//5 546//5 552//5 556//5
f 547//1 549//1 561//1 554//1
